<svg width="559" height="106" viewBox="0 0 559 106" fill="none" xmlns="http://www.w3.org/2000/svg">
<path d="M30.1105 84.536C29.8545 84.536 29.4278 84.5787 28.8305 84.664C28.2332 84.7493 27.5505 84.8347 26.7825 84.92C26.0145 85.0053 25.2465 85.0907 24.4785 85.176C23.7105 85.2613 23.0278 85.304 22.4305 85.304C21.7478 85.304 21.1505 85.176 20.6385 84.92C20.2118 84.664 19.9985 83.9387 19.9985 82.744C19.9985 82.3173 20.0838 81.848 20.2545 81.336C20.5105 80.7387 20.8945 79.8427 21.4065 78.648C21.9185 77.4533 22.6012 75.832 23.4545 73.784C24.3078 71.736 25.3745 69.048 26.6545 65.72C29.6412 57.9547 31.8598 51.9813 33.3105 47.8C34.8465 43.5333 35.9985 40.2907 36.7665 38.072C37.5345 35.768 38.0892 34.0187 38.4305 32.824C38.7718 31.6293 39.2838 30.1787 39.9665 28.472C40.4785 27.192 40.8625 26.1253 41.1185 25.272C41.4598 24.4187 41.6305 23.6507 41.6305 22.968C41.6305 21.176 40.9905 19.768 39.7105 18.744C38.4305 17.72 37.1078 16.696 35.7425 15.672C34.5478 14.7333 33.2252 13.7093 31.7745 12.6C30.3238 11.4907 28.7452 10.936 27.0385 10.936C25.6732 10.936 24.6492 11.4907 23.9665 12.6C23.3692 13.624 22.8572 14.648 22.4305 15.672C21.4065 18.3173 20.6385 20.536 20.1265 22.328C19.6145 24.0347 19.1452 25.7413 18.7185 27.448C18.3772 29.1547 17.9505 31.032 17.4385 33.08C16.9265 35.0427 16.2012 37.6453 15.2625 40.888C14.3238 44.1307 13.0012 48.184 11.2945 53.048C9.67315 57.912 7.49715 64.0133 4.76649 71.352C3.31582 75.192 2.24915 78.3493 1.56649 80.824C0.883819 83.2987 0.542486 85.432 0.542486 87.224C0.542486 87.736 0.670486 88.8027 0.926486 90.424C1.18249 92.0453 1.77982 93.752 2.71849 95.544C3.74249 97.2507 5.19315 98.7867 7.07049 100.152C9.03315 101.603 11.6785 102.328 15.0065 102.328C16.6278 102.328 18.1638 102.285 19.6145 102.2C21.1505 102.2 22.9852 102.115 25.1185 101.944C27.2518 101.859 29.8118 101.773 32.7985 101.688C35.7852 101.603 39.5398 101.475 44.0625 101.304C49.2678 101.133 53.6625 101.005 57.2465 100.92C60.8305 100.92 63.8172 100.749 66.2065 100.408C68.6812 100.152 70.6438 99.7253 72.0945 99.128C73.6305 98.616 74.9105 97.7627 75.9345 96.568C76.9585 95.288 77.8545 93.7093 78.6225 91.832C79.4758 89.8693 80.4572 87.3947 81.5665 84.408C82.4198 82.0187 83.1452 80.0133 83.7425 78.392C84.3398 76.7707 84.9798 75.0213 85.6625 73.144C86.3452 71.1813 87.1985 68.8347 88.2225 66.104C89.2465 63.3733 90.6545 59.704 92.4465 55.096C94.9212 48.5253 96.8838 43.2773 98.3345 39.352C99.7852 35.3413 100.852 32.2267 101.534 30.008C102.302 27.704 102.772 26.0827 102.942 25.144C103.113 24.12 103.198 23.2667 103.198 22.584C103.198 21.816 102.772 20.92 101.918 19.896C101.15 18.872 100.169 17.9333 98.9745 17.08C97.8652 16.1413 96.6278 15.3733 95.2625 14.776C93.8972 14.0933 92.6598 13.752 91.5505 13.752C90.2705 13.752 89.1612 14.0507 88.2225 14.648C87.3692 15.16 86.6012 15.8853 85.9185 16.824C85.2358 17.7627 84.6385 18.8293 84.1265 20.024C83.6998 21.2187 83.2732 22.4133 82.8465 23.608C82.0785 25.912 81.2252 28.3867 80.2865 31.032C79.4332 33.592 78.5798 36.152 77.7265 38.712C76.9585 41.272 76.1478 43.7893 75.2945 46.264C74.5265 48.6533 73.8438 50.8293 73.2465 52.792C70.0892 62.3493 66.4198 72.2907 62.2385 82.616C60.0198 83.0427 58.3558 83.384 57.2465 83.64C56.1372 83.8107 55.1132 83.896 54.1745 83.896C53.6625 83.896 53.1505 83.8107 52.6385 83.64C52.1265 83.4693 51.8705 82.9147 51.8705 81.976C51.8705 81.0373 52.0838 80.056 52.5105 79.032C53.1078 77.5813 53.5772 76.472 53.9185 75.704C54.2598 74.936 54.5585 74.2533 54.8145 73.656C55.1558 72.9733 55.4972 72.248 55.8385 71.48C56.2652 70.6267 56.7772 69.432 57.3745 67.896C58.0572 66.2747 58.9105 64.184 59.9345 61.624C60.9585 59.064 62.2385 55.6933 63.7745 51.512C65.1398 47.928 66.5478 44.1307 67.9985 40.12C69.5345 36.1093 70.8998 31.8 72.0945 27.192C72.6065 25.2293 72.5638 23.48 71.9665 21.944C71.3692 20.3227 70.4732 18.9573 69.2785 17.848C68.1692 16.6533 66.8465 15.7573 65.3105 15.16C63.8598 14.4773 62.4945 14.136 61.2145 14.136C60.0198 14.136 58.6118 14.7333 56.9905 15.928C55.3692 17.1227 53.8758 19.4693 52.5105 22.968C51.3158 25.8693 50.5052 28.0027 50.0785 29.368C49.6518 30.648 49.3532 31.5867 49.1825 32.184C49.0972 32.7813 49.0545 33.2933 49.0545 33.72C49.0545 34.0613 48.8838 34.7867 48.5425 35.896C48.2865 37.0053 47.7745 38.712 47.0065 41.016C46.3238 43.2347 45.1718 46.5627 43.5505 51C41.4172 56.888 39.2838 62.4773 37.1505 67.768C35.1025 73.0587 32.7558 78.648 30.1105 84.536ZM115.573 92.728C115.317 93.496 115.189 94.264 115.189 95.032C115.189 96.312 115.445 97.336 115.957 98.104C116.469 98.872 117.109 99.4267 117.877 99.768C118.645 100.195 119.499 100.493 120.437 100.664C121.376 100.835 122.229 101.005 122.997 101.176C124.363 101.517 125.429 101.816 126.197 102.072C127.051 102.328 127.904 102.456 128.757 102.456C129.867 102.456 130.72 102.115 131.317 101.432C132 100.835 132.512 100.024 132.853 99C133.195 98.0613 133.408 97.08 133.493 96.056C133.579 94.9467 133.664 93.9227 133.749 92.984C133.835 91.8747 133.963 90.4667 134.133 88.76C134.304 86.968 134.517 85.048 134.773 83C135.115 80.8667 135.541 78.6053 136.053 76.216C136.651 73.7413 137.333 71.224 138.101 68.664C139.637 63.9707 141.088 60.1307 142.453 57.144C143.904 54.072 145.141 51.5547 146.165 49.592C147.275 47.6293 148.128 46.0507 148.725 44.856C149.408 43.576 149.749 42.296 149.749 41.016C149.749 39.48 149.28 38.2853 148.341 37.432C147.403 36.5787 146.379 35.7253 145.269 34.872C144.501 34.2747 143.648 33.6347 142.709 32.952C141.771 32.184 140.747 31.7573 139.637 31.672C138.613 31.5867 137.504 32.0133 136.309 32.952C135.2 33.8053 134.048 35.5547 132.853 38.2C131.659 36.7493 130.507 35.8107 129.397 35.384C128.288 34.872 127.307 34.616 126.453 34.616C124.917 34.616 122.827 35.3413 120.181 36.792C117.536 38.2427 114.848 39.9493 112.117 41.912C109.387 43.8747 106.784 45.9227 104.309 48.056C101.92 50.1893 100.171 51.896 99.0615 53.176C95.4775 57.272 92.7042 61.5813 90.7415 66.104C88.7788 70.6267 87.7975 75.1493 87.7975 79.672C87.7975 82.0613 88.0535 84.4933 88.5655 86.968C89.1628 89.3573 90.0588 91.5333 91.2535 93.496C92.4482 95.3733 93.9415 96.9093 95.7335 98.104C97.5255 99.2987 99.6588 99.896 102.133 99.896C105.035 99.896 107.467 99.2133 109.429 97.848C111.477 96.3973 113.355 94.648 115.061 92.6L115.573 92.728ZM124.789 54.072C123.168 59.448 121.504 63.928 119.797 67.512C118.176 71.096 116.597 73.9547 115.061 76.088C113.611 78.136 112.288 79.5867 111.093 80.44C109.899 81.2933 109.003 81.72 108.405 81.72C107.979 81.72 107.552 81.5067 107.125 81.08C106.784 80.6533 106.613 79.8427 106.613 78.648C106.613 76.344 107.168 73.9547 108.277 71.48C109.387 68.92 110.795 66.488 112.501 64.184C114.293 61.88 116.256 59.832 118.389 58.04C120.523 56.1627 122.656 54.84 124.789 54.072ZM172.742 76.216C172.401 76.5573 171.889 76.984 171.206 77.496C170.609 77.9227 169.969 78.3493 169.286 78.776C168.604 79.2027 167.878 79.5867 167.11 79.928C166.342 80.184 165.66 80.312 165.062 80.312C164.38 80.312 163.654 80.1413 162.886 79.8C162.118 79.4587 161.734 78.8187 161.734 77.88C161.734 77.368 161.82 76.7707 161.99 76.088C162.161 75.32 162.46 74.2533 162.886 72.888C163.398 71.4373 164.081 69.6027 164.934 67.384C165.873 65.1653 167.11 62.3067 168.646 58.808C170.609 54.3707 172.102 51.0427 173.126 48.824C174.15 46.52 174.662 44.7707 174.662 43.576C174.662 42.552 174.193 41.4853 173.254 40.376C172.316 39.2667 171.206 38.2427 169.926 37.304C168.732 36.28 167.494 35.4693 166.214 34.872C164.934 34.2747 163.953 33.976 163.27 33.976C162.161 33.976 160.924 34.9147 159.558 36.792C158.278 38.584 156.913 40.9307 155.462 43.832C154.097 46.7333 152.732 49.976 151.366 53.56C150.086 57.144 148.934 60.728 147.91 64.312C146.972 67.8107 146.161 71.1387 145.478 74.296C144.881 77.368 144.582 79.8427 144.582 81.72C144.582 84.28 144.924 86.6693 145.606 88.888C146.289 91.1067 147.185 93.0267 148.294 94.648C149.404 96.2693 150.641 97.5493 152.006 98.488C153.457 99.4267 154.95 99.896 156.486 99.896C157.169 99.896 157.98 99.8107 158.918 99.64C159.857 99.5547 160.966 99.2987 162.246 98.872C163.612 98.36 165.148 97.6773 166.854 96.824C168.561 95.8853 170.566 94.648 172.87 93.112C173.809 94.7333 175.089 96.2693 176.71 97.72C178.332 99.1707 179.996 99.896 181.702 99.896C182.897 99.896 184.177 99.5973 185.542 99C186.993 98.3173 188.401 97.5067 189.766 96.568C191.217 95.544 192.54 94.4773 193.734 93.368C195.014 92.2587 196.124 91.2347 197.062 90.296C196.806 90.8933 196.636 91.4907 196.55 92.088C196.55 92.6853 196.55 93.2827 196.55 93.88C196.55 94.5627 196.934 95.3733 197.702 96.312C198.556 97.2507 199.58 98.1467 200.774 99C201.969 99.9387 203.164 100.707 204.358 101.304C205.638 101.901 206.748 102.2 207.686 102.2C208.71 102.2 209.564 101.816 210.246 101.048C210.929 100.28 211.484 99.2987 211.91 98.104C212.422 96.824 212.849 95.416 213.19 93.88C213.617 92.344 214.044 90.808 214.47 89.272C215.75 84.8347 216.945 80.952 218.054 77.624C219.164 74.296 220.188 71.3947 221.126 68.92C222.065 66.4453 222.876 64.312 223.558 62.52C224.326 60.728 225.009 59.192 225.606 57.912C226.46 55.864 227.185 54.1573 227.782 52.792C228.38 51.3413 228.849 50.1893 229.19 49.336C229.532 48.3973 229.745 47.672 229.83 47.16C230.001 46.5627 230.086 46.0507 230.086 45.624C230.086 44.5147 229.702 43.32 228.934 42.04C228.166 40.6747 227.228 39.3947 226.118 38.2C225.009 37.0053 223.814 36.024 222.535 35.256C221.34 34.4027 220.273 33.976 219.334 33.976C218.396 33.976 217.5 34.36 216.646 35.128C215.878 35.8107 215.196 36.664 214.598 37.688C214.001 38.6267 213.489 39.608 213.062 40.632C212.636 41.656 212.294 42.424 212.038 42.936C210.844 45.752 209.734 48.44 208.71 51C207.772 53.56 206.833 56.12 205.894 58.68C205.041 61.24 204.145 63.8427 203.206 66.488C202.353 69.1333 201.457 71.992 200.518 75.064C200.177 75.4907 199.622 76.0027 198.854 76.6C198.172 77.1973 197.361 77.7947 196.422 78.392C195.569 78.904 194.716 79.3733 193.862 79.8C193.009 80.1413 192.284 80.312 191.686 80.312C191.004 80.312 190.406 80.184 189.894 79.928C189.468 79.672 189.254 79.16 189.254 78.392C189.254 77.88 189.34 77.3253 189.51 76.728C189.681 76.1307 189.937 75.2773 190.278 74.168C190.705 72.9733 191.26 71.48 191.942 69.688C192.71 67.8107 193.649 65.3787 194.758 62.392C195.697 59.832 196.38 58.04 196.806 57.016C197.318 55.9067 197.66 55.224 197.83 54.968C198.001 54.6267 198.086 54.4987 198.086 54.584C198.172 54.6693 198.257 54.584 198.342 54.328C198.513 54.072 198.812 53.432 199.238 52.408C199.665 51.2987 200.348 49.464 201.286 46.904C201.798 45.5387 202.012 44.3867 201.926 43.448C201.841 42.5093 201.585 41.7413 201.158 41.144C200.732 40.4613 200.177 39.864 199.494 39.352C198.812 38.84 198.172 38.328 197.574 37.816C196.636 37.048 195.612 36.2373 194.502 35.384C193.478 34.4453 192.241 33.976 190.79 33.976C189.766 33.976 188.657 34.488 187.462 35.512C186.353 36.536 185.073 38.584 183.622 41.656C182.257 44.6427 180.678 48.9093 178.886 54.456C177.094 60.0027 175.046 67.256 172.742 76.216ZM251.134 67C250.878 68.536 250.537 70.328 250.11 72.376C249.684 74.3387 249.3 76.3867 248.958 78.52C248.617 80.6533 248.318 82.7013 248.062 84.664C247.806 86.6267 247.678 88.2907 247.678 89.656C247.678 91.192 247.849 92.3867 248.19 93.24C248.532 94.0933 249.001 94.8187 249.598 95.416C250.281 96.0133 251.006 96.4827 251.774 96.824C252.542 97.1653 253.396 97.592 254.334 98.104C255.529 98.7867 256.638 99.4267 257.662 100.024C258.686 100.707 259.924 101.048 261.374 101.048C263.508 101.048 265.001 100.408 265.854 99.128C266.793 97.848 267.39 96.184 267.646 94.136C267.902 92.0027 267.988 89.6133 267.902 86.968C267.817 84.3227 267.774 81.592 267.774 78.776C267.86 73.656 268.073 69.0053 268.414 64.824C268.841 60.6427 269.268 56.9733 269.694 53.816C270.121 50.5733 270.505 47.928 270.846 45.88C271.188 43.7467 271.358 42.168 271.358 41.144C271.358 40.2907 270.846 39.4373 269.822 38.584C268.798 37.7307 267.604 36.9627 266.238 36.28C264.873 35.5973 263.465 35.0427 262.014 34.616C260.649 34.1893 259.582 33.976 258.814 33.976C256.937 33.976 255.358 34.744 254.078 36.28C252.884 37.7307 251.689 39.3947 250.494 41.272C249.214 43.2347 247.721 45.496 246.014 48.056C244.308 50.616 242.473 53.304 240.51 56.12C238.633 58.8507 236.67 61.6667 234.622 64.568C232.66 67.384 230.74 70.072 228.862 72.632C227.07 75.1067 225.364 77.4107 223.742 79.544C222.121 81.592 220.756 83.2133 219.646 84.408C218.622 85.5173 217.556 86.7973 216.446 88.248C215.337 89.6133 214.782 90.9787 214.782 92.344C214.782 93.0267 215.124 93.9227 215.806 95.032C216.404 96.1413 217.172 97.2507 218.11 98.36C219.049 99.384 220.03 100.28 221.054 101.048C222.164 101.901 223.102 102.328 223.87 102.328C224.553 102.328 225.236 102.157 225.918 101.816C226.686 101.475 227.369 101.048 227.966 100.536C228.649 100.024 229.246 99.512 229.758 99C230.27 98.488 230.654 98.0613 230.91 97.72C232.19 96.2693 233.641 94.4347 235.262 92.216C236.884 89.9973 238.59 87.5227 240.382 84.792C242.174 82.0613 243.966 79.16 245.758 76.088C247.55 73.016 249.172 69.944 250.622 66.872L251.134 67ZM300.429 92.728C300.173 93.496 300.045 94.264 300.045 95.032C300.045 96.312 300.301 97.336 300.812 98.104C301.325 98.872 301.965 99.4267 302.733 99.768C303.501 100.195 304.354 100.493 305.293 100.664C306.231 100.835 307.085 101.005 307.853 101.176C309.218 101.517 310.285 101.816 311.053 102.072C311.906 102.328 312.759 102.456 313.613 102.456C314.722 102.456 315.575 102.115 316.173 101.432C316.855 100.835 317.367 100.024 317.709 99C318.05 98.0613 318.263 97.08 318.349 96.056C318.434 94.9467 318.519 93.9227 318.605 92.984C318.69 91.8747 318.818 90.4667 318.989 88.76C319.159 86.968 319.373 85.048 319.629 83C319.97 80.8667 320.397 78.6053 320.909 76.216C321.506 73.7413 322.189 71.224 322.957 68.664C324.493 63.9707 325.943 60.1307 327.309 57.144C328.759 54.072 329.997 51.5547 331.021 49.592C332.13 47.6293 332.983 46.0507 333.581 44.856C334.263 43.576 334.604 42.296 334.604 41.016C334.604 39.48 334.135 38.2853 333.197 37.432C332.258 36.5787 331.234 35.7253 330.125 34.872C329.357 34.2747 328.503 33.6347 327.565 32.952C326.626 32.184 325.602 31.7573 324.493 31.672C323.469 31.5867 322.359 32.0133 321.165 32.952C320.055 33.8053 318.903 35.5547 317.709 38.2C316.514 36.7493 315.362 35.8107 314.253 35.384C313.143 34.872 312.162 34.616 311.309 34.616C309.773 34.616 307.682 35.3413 305.037 36.792C302.391 38.2427 299.703 39.9493 296.973 41.912C294.242 43.8747 291.639 45.9227 289.165 48.056C286.775 50.1893 285.026 51.896 283.917 53.176C280.333 57.272 277.559 61.5813 275.597 66.104C273.634 70.6267 272.653 75.1493 272.653 79.672C272.653 82.0613 272.909 84.4933 273.421 86.968C274.018 89.3573 274.914 91.5333 276.109 93.496C277.303 95.3733 278.797 96.9093 280.589 98.104C282.381 99.2987 284.514 99.896 286.989 99.896C289.89 99.896 292.322 99.2133 294.285 97.848C296.333 96.3973 298.21 94.648 299.917 92.6L300.429 92.728ZM309.645 54.072C308.023 59.448 306.359 63.928 304.653 67.512C303.031 71.096 301.453 73.9547 299.917 76.088C298.466 78.136 297.143 79.5867 295.949 80.44C294.754 81.2933 293.858 81.72 293.261 81.72C292.834 81.72 292.407 81.5067 291.981 81.08C291.639 80.6533 291.469 79.8427 291.469 78.648C291.469 76.344 292.023 73.9547 293.133 71.48C294.242 68.92 295.65 66.488 297.357 64.184C299.149 61.88 301.111 59.832 303.245 58.04C305.378 56.1627 307.511 54.84 309.645 54.072ZM359.645 56.376C360.413 53.6453 361.053 51.4267 361.565 49.72C362.163 47.928 362.632 46.52 362.973 45.496C363.315 44.3867 363.528 43.5333 363.613 42.936C363.784 42.2533 363.869 41.6987 363.869 41.272C363.869 40.1627 363.699 39.3093 363.357 38.712C363.101 38.0293 362.675 37.5173 362.077 37.176C361.48 36.7493 360.755 36.3653 359.901 36.024C359.048 35.6827 358.109 35.2987 357.085 34.872C354.952 34.0187 353.203 33.7627 351.837 34.104C350.557 34.4453 349.405 35.512 348.381 37.304C347.443 39.096 346.461 41.6133 345.437 44.856C344.499 48.0987 343.261 52.152 341.725 57.016C339.251 57.1013 337.373 57.528 336.093 58.296C334.899 59.064 334.045 59.96 333.533 60.984C333.107 61.9227 332.893 62.904 332.893 63.928C332.893 64.8667 332.936 65.592 333.021 66.104C333.192 67.7253 333.277 69.0907 333.277 70.2C333.363 71.224 333.448 72.0773 333.533 72.76C333.619 73.3573 333.789 73.8267 334.045 74.168C334.301 74.424 334.771 74.5947 335.453 74.68C334.856 76.3867 334.131 78.0933 333.277 79.8C332.424 81.4213 331.613 83 330.845 84.536C330.077 85.9867 329.437 87.352 328.925 88.632C328.413 89.912 328.157 91.064 328.157 92.088C328.157 92.9413 328.328 93.6667 328.669 94.264C329.096 94.776 329.565 95.2453 330.077 95.672C330.589 96.0133 331.144 96.3547 331.741 96.696C332.424 97.0373 333.021 97.3787 333.533 97.72C334.728 98.5733 335.837 99.5547 336.861 100.664C337.971 101.773 339.251 102.328 340.701 102.328C342.579 102.328 343.901 101.517 344.669 99.896C345.523 98.2747 346.291 96.568 346.973 94.776C347.656 92.8987 348.253 91.2347 348.765 89.784C349.277 88.248 349.789 86.712 350.301 85.176C350.813 83.5547 351.368 81.848 351.965 80.056C352.563 78.1787 353.331 76.0027 354.269 73.528C356.915 72.76 359.432 72.4187 361.821 72.504C361.309 73.8693 360.797 75.3627 360.285 76.984C359.773 78.52 359.261 80.1413 358.749 81.848C358.323 83.4693 357.939 85.048 357.597 86.584C357.341 88.12 357.213 89.528 357.213 90.808C357.213 93.0267 357.512 94.776 358.109 96.056C358.707 97.336 359.475 98.3173 360.413 99C361.352 99.768 362.333 100.28 363.357 100.536C364.381 100.877 365.363 101.176 366.301 101.432C367.411 101.688 368.563 101.987 369.757 102.328C370.952 102.669 372.061 102.584 373.085 102.072C374.109 101.56 374.963 100.408 375.645 98.616C376.413 96.824 376.84 94.008 376.925 90.168C377.011 87.608 377.224 84.7493 377.565 81.592C377.992 78.4347 378.803 75.192 379.997 71.864C381.448 67.512 382.856 63.8 384.221 60.728C385.672 57.656 386.952 55.0107 388.061 52.792C389.171 50.5733 390.067 48.6533 390.749 47.032C391.432 45.4107 391.773 43.9173 391.773 42.552C391.773 40.76 391.261 39.5653 390.237 38.968C389.213 38.2853 388.104 37.56 386.909 36.792C385.971 36.1093 385.117 35.4693 384.349 34.872C383.581 34.2747 382.515 33.976 381.149 33.976C379.869 33.976 378.76 34.4027 377.821 35.256C376.883 36.1093 375.901 37.432 374.877 39.224C373.939 41.016 372.872 43.3627 371.677 46.264C370.483 49.1653 369.032 52.664 367.325 56.76C366.643 56.5893 366.003 56.4613 365.405 56.376C364.808 56.2907 364.168 56.248 363.485 56.248C362.803 56.248 362.163 56.248 361.565 56.248C360.968 56.248 360.328 56.2907 359.645 56.376ZM429.861 39.224C428.667 38.0293 427.344 36.9627 425.893 36.024C424.528 35.0853 422.992 34.616 421.285 34.616C419.579 34.616 417.531 35.256 415.141 36.536C412.752 37.7307 410.277 39.4373 407.717 41.656C405.157 43.8747 402.597 46.4773 400.037 49.464C397.563 52.4507 395.301 55.6933 393.253 59.192C391.291 62.6053 389.669 66.232 388.389 70.072C387.195 73.912 386.597 77.752 386.597 81.592C386.597 85.432 387.152 88.5467 388.261 90.936C389.456 93.24 390.864 95.0747 392.485 96.44C394.107 97.8053 395.813 98.7013 397.605 99.128C399.397 99.64 400.976 99.896 402.341 99.896C405.072 99.896 408.059 99.3413 411.301 98.232C414.629 97.0373 417.957 95.3307 421.285 93.112C424.613 90.808 427.813 87.9493 430.885 84.536C434.043 81.1227 436.816 77.1547 439.205 72.632C441.68 68.024 443.643 62.8613 445.093 57.144C446.629 51.4267 447.397 45.112 447.397 38.2C447.397 33.2507 446.587 28.5147 444.965 23.992C443.344 19.384 441.381 15.3307 439.077 11.832C436.773 8.33333 434.299 5.55999 431.653 3.51199C429.008 1.37866 426.661 0.311996 424.613 0.311996C423.845 0.311996 422.907 0.610662 421.797 1.20799C420.688 1.72 419.579 2.40266 418.469 3.256C417.36 4.024 416.421 4.92 415.653 5.94399C414.885 6.96799 414.501 7.90666 414.501 8.75999C414.501 9.784 414.843 10.808 415.525 11.832C416.208 12.7707 417.061 13.8373 418.085 15.032C419.109 16.1413 420.261 17.4213 421.541 18.872C422.821 20.3227 424.059 22.0293 425.253 23.992C426.619 26.1253 427.685 28.4293 428.453 30.904C429.221 33.3787 429.691 36.152 429.861 39.224ZM427.429 50.744C426.491 55.2667 425.04 59.4907 423.077 63.416C421.2 67.3413 419.195 70.7973 417.061 73.784C414.928 76.6853 412.837 78.9893 410.789 80.696C408.741 82.3173 407.077 83.128 405.797 83.128C404.859 83.128 404.304 82.8293 404.133 82.232C404.048 81.5493 404.005 80.9093 404.005 80.312C404.005 77.5813 404.731 74.68 406.181 71.608C407.717 68.536 409.595 65.592 411.813 62.776C414.117 59.96 416.635 57.4853 419.365 55.352C422.181 53.2187 424.869 51.6827 427.429 50.744ZM471.155 92.216C470.387 94.008 470.387 95.544 471.155 96.824C471.923 98.104 472.99 99.128 474.355 99.896C475.806 100.749 477.342 101.347 478.963 101.688C480.67 102.115 481.993 102.328 482.931 102.328C484.041 102.328 484.894 102.115 485.491 101.688C486.089 101.261 486.558 100.707 486.899 100.024C487.241 99.3413 487.454 98.5733 487.539 97.72C487.625 96.7813 487.71 95.8427 487.795 94.904C488.137 90.1253 488.905 85.56 490.099 81.208C491.294 76.7707 492.617 72.7173 494.067 69.048C495.518 65.3787 497.011 62.136 498.547 59.32C500.169 56.504 501.534 54.2 502.643 52.408C503.582 50.872 504.393 49.592 505.075 48.568C505.758 47.4587 506.099 46.1787 506.099 44.728C506.099 43.7893 505.801 42.7653 505.203 41.656C504.606 40.5467 503.838 39.5653 502.899 38.712C501.961 37.7733 500.894 37.0053 499.699 36.408C498.59 35.8107 497.523 35.512 496.499 35.512C494.707 35.512 493.257 36.2373 492.147 37.688C491.038 39.0533 490.142 40.3333 489.459 41.528C487.411 45.1973 484.809 50.1467 481.651 56.376C478.494 62.6053 475.422 70.328 472.435 79.544C469.79 81.2507 467.87 82.36 466.675 82.872C465.566 83.384 464.67 83.64 463.987 83.64C461.939 83.64 460.915 82.8293 460.915 81.208C460.915 80.6107 461.001 79.8 461.171 78.776C461.427 77.752 461.897 76.344 462.579 74.552C463.347 72.6747 464.371 70.328 465.651 67.512C467.017 64.6107 468.851 61.0693 471.155 56.888C472.862 53.7307 474.227 51.2133 475.251 49.336C476.361 47.3733 477.171 45.88 477.683 44.856C478.281 43.832 478.665 43.1067 478.835 42.68C479.091 42.2533 479.219 41.8693 479.219 41.528C479.219 40.76 478.75 39.9493 477.811 39.096C476.958 38.2427 475.934 37.432 474.739 36.664C473.545 35.896 472.35 35.256 471.155 34.744C469.961 34.232 469.065 33.976 468.467 33.976C466.846 33.976 465.097 35.0427 463.219 37.176C461.427 39.224 459.593 41.912 457.715 45.24C455.923 48.4827 454.174 52.0667 452.467 55.992C450.761 59.832 449.225 63.544 447.859 67.128C446.579 70.712 445.513 73.912 444.659 76.728C443.891 79.4587 443.507 81.336 443.507 82.36C443.507 84.2373 443.763 86.2 444.275 88.248C444.873 90.296 445.641 92.216 446.579 94.008C447.603 95.7147 448.798 97.1227 450.163 98.232C451.529 99.3413 453.022 99.896 454.643 99.896C455.07 99.896 455.667 99.8107 456.435 99.64C457.203 99.5547 458.185 99.256 459.379 98.744C460.659 98.232 462.238 97.464 464.115 96.44C466.078 95.416 468.425 94.008 471.155 92.216ZM530.899 75.448C530.131 78.264 529.449 80.696 528.851 82.744C528.339 84.7067 527.87 86.4133 527.443 87.864C527.102 89.3147 526.803 90.5947 526.547 91.704C526.377 92.728 526.291 93.7093 526.291 94.648C526.291 95.7573 526.547 96.6533 527.059 97.336C527.571 98.0187 528.169 98.5733 528.851 99C529.619 99.4267 530.43 99.7253 531.283 99.896C532.137 100.152 532.947 100.408 533.715 100.664C535.166 101.091 536.318 101.475 537.171 101.816C538.11 102.157 539.006 102.328 539.859 102.328C541.054 102.328 541.993 101.901 542.675 101.048C543.443 100.28 543.998 99.2987 544.339 98.104C544.766 96.9093 545.065 95.6293 545.235 94.264C545.406 92.8987 545.577 91.6187 545.747 90.424C546.003 88.2907 546.558 85.3467 547.411 81.592C548.265 77.752 549.203 73.8267 550.227 69.816C551.337 65.8053 552.403 62.0507 553.427 58.552C554.537 55.0533 555.433 52.536 556.115 51C556.798 49.464 557.438 47.9707 558.035 46.52C558.633 45.0693 558.931 43.7467 558.931 42.552C558.931 40.6747 558.377 39.4373 557.267 38.84C556.243 38.1573 555.177 37.4747 554.067 36.792C553.129 36.28 552.19 35.6827 551.251 35C550.313 34.3173 549.331 33.976 548.307 33.976C546.942 33.976 545.705 34.5307 544.595 35.64C543.571 36.7493 542.761 37.8587 542.163 38.968C541.993 37.7733 541.523 36.6213 540.755 35.512C540.073 34.4027 538.921 33.848 537.299 33.848C536.19 33.848 534.611 34.1467 532.563 34.744C530.515 35.256 528.254 36.0667 525.779 37.176C523.305 38.2853 520.787 39.6507 518.227 41.272C515.667 42.808 513.321 44.6 511.187 46.648C509.139 48.696 507.433 50.9573 506.067 53.432C504.787 55.9067 504.147 58.5947 504.147 61.496C504.147 63.1173 504.403 64.7813 504.915 66.488C505.427 68.1093 506.195 69.6027 507.219 70.968C508.243 72.3333 509.481 73.4853 510.931 74.424C512.467 75.3627 514.217 75.8747 516.179 75.96C513.363 78.52 510.505 80.6107 507.603 82.232C504.702 83.768 502.099 85.1333 499.795 86.328C497.491 87.4373 495.614 88.5467 494.163 89.656C492.713 90.68 491.987 91.9173 491.987 93.368C491.987 94.2213 492.414 95.3307 493.267 96.696C494.035 97.976 494.974 99.2133 496.083 100.408C497.193 101.688 498.302 102.755 499.411 103.608C500.606 104.547 501.545 105.016 502.227 105.016C503.507 105.016 504.958 104.461 506.579 103.352C508.286 102.243 510.035 100.792 511.827 99C513.705 97.208 515.539 95.2027 517.331 92.984C519.123 90.7653 520.787 88.5893 522.323 86.456C523.945 84.3227 525.353 82.3173 526.547 80.44C527.742 78.4773 528.638 76.9413 529.235 75.832L530.899 75.448ZM537.555 51C536.958 52.6213 536.361 54.2 535.763 55.736C535.251 57.272 534.739 58.8507 534.227 60.472C531.326 62.008 529.235 62.9467 527.955 63.288C526.675 63.6293 525.822 63.8 525.395 63.8C523.774 63.8 522.793 63.5013 522.451 62.904C522.195 62.2213 522.067 61.5387 522.067 60.856C522.067 58.8933 523.433 57.0587 526.163 55.352C528.979 53.56 532.777 52.1093 537.555 51Z" fill="#E70000"/>
</svg>
