<svg width="27" height="40" viewBox="0 0 27 40" fill="none" xmlns="http://www.w3.org/2000/svg">
<path d="M6.42369 39H19.87M2.30697 18.6814C-0.52456 14.1574 1.5148 6.52806 5.83225 3.39253C7.92655 1.83882 10.4651 1 13.0728 1C15.6805 1 18.2191 1.83882 20.3134 3.39253C24.9251 6.92171 26.7559 14.021 23.9244 18.544L13.0728 35.884L2.30697 18.6814ZM18.5372 14.1018C18.5372 17.0782 16.1244 19.4911 13.148 19.4911C10.1716 19.4911 7.75872 17.0782 7.75872 14.1018C7.75872 11.1254 10.1716 8.71256 13.148 8.71256C16.1244 8.71256 18.5372 11.1254 18.5372 14.1018Z" stroke="#E70000" stroke-width="2" stroke-linecap="round" stroke-linejoin="round"/>
</svg>
