<svg width="41" height="41" viewBox="0 0 41 41" fill="none" xmlns="http://www.w3.org/2000/svg">
<g clip-path="url(#clip0_1110_2032)">
<path d="M35.2408 5.75248C33.0463 3.55868 30.6532 1.81157 28.5011 0.833408C26.1355 -0.241578 24.2711 -0.269848 23.2463 0.755664C23.2456 0.757078 23.2442 0.757784 23.2428 0.759198C20.1719 3.83149 17.0176 8.85728 15.2069 13.5643C13.575 17.807 13.1771 21.3013 14.011 23.7113L9.4828 28.2395C7.9774 29.7449 5.89386 30.5358 3.75237 30.3994C3.40818 30.3782 3.05833 30.4079 2.71131 30.487C1.41794 30.7825 0.391011 31.8073 0.0941704 33.0978C-0.153196 34.1742 0.0920502 35.2789 0.767715 36.1263C1.29284 36.7864 2.01939 37.2274 2.82651 37.39C2.80814 38.1222 3.06257 38.9979 4.07112 39.9916C4.73053 40.6404 5.54684 40.9938 6.38012 40.9938C6.4098 40.9938 6.43948 40.9938 6.46846 40.9931C8.38944 40.9344 9.89343 39.3831 9.89343 37.4204C9.86728 35.1284 10.6355 33.0837 12.0554 31.6638L16.8939 26.8253C17.7957 27.2084 18.8637 27.4049 20.0871 27.4049C22.1416 27.4049 24.6217 26.8649 27.4282 25.7857C32.136 23.9742 37.1617 20.8214 40.234 17.7498C40.2347 17.7491 40.2362 17.7476 40.2376 17.7462C42.5105 15.4747 39.3591 9.87149 35.2408 5.75248ZM15.6352 26.086L11.0568 30.6651C9.36548 32.3564 8.45093 34.7608 8.48061 37.4607C8.48061 38.6141 7.57808 39.5449 6.42606 39.5795C5.96454 39.6113 5.46769 39.3824 5.06271 38.9837C4.1206 38.0565 4.17926 37.4578 4.3199 36.9235L4.55808 36.0182L3.62233 36.0365C3.57568 36.038 3.52974 36.0429 3.53328 36.0471C2.88376 36.0471 2.27877 35.7552 1.8738 35.2464C1.46176 34.7297 1.3197 34.0788 1.47236 33.4145C1.64622 32.6603 2.27029 32.0377 3.02653 31.8645C3.24209 31.8158 3.45695 31.7974 3.66615 31.8101C6.19848 31.9684 8.69052 31.0312 10.4836 29.2389L14.6775 25.045C14.6916 25.0662 14.7107 25.0817 14.7249 25.1029C14.8853 25.3305 15.057 25.5475 15.2514 25.7425C15.3708 25.8627 15.4995 25.9772 15.6352 26.086ZM26.9215 24.4668C22.5593 26.1454 19.0545 26.4401 17.0551 25.3383C16.9271 25.2669 16.8077 25.1899 16.6932 25.1086C16.672 25.0937 16.648 25.0803 16.6268 25.0648C16.4988 24.9701 16.3808 24.8683 16.272 24.7616C16.2649 24.7545 16.2571 24.7495 16.2501 24.7425C16.2479 24.7404 16.2465 24.7382 16.2444 24.7361C16.1066 24.5976 15.9815 24.4393 15.8649 24.2697C15.8401 24.2343 15.8175 24.1976 15.7942 24.1615C15.6854 23.9912 15.5836 23.8096 15.4952 23.6117C15.4903 23.6011 15.4846 23.5912 15.4797 23.5806L15.4479 23.5085C14.5998 21.4574 14.963 18.1364 16.5271 14.0711C17.9406 10.3959 20.1959 6.52709 22.5657 3.62583C22.5982 3.83361 22.6463 4.0513 22.7028 4.27322C22.7191 4.33612 22.7388 4.40114 22.7565 4.46546C22.8067 4.64568 22.8646 4.82944 22.9304 5.01744C22.9558 5.09024 22.9806 5.16233 23.0081 5.23654C23.1021 5.48815 23.2046 5.74399 23.3247 6.00903C24.3029 8.16041 26.05 10.5542 28.2438 12.748C30.4376 14.9425 32.8314 16.6896 34.9835 17.6678C35.2542 17.7908 35.5164 17.8954 35.7737 17.9908C35.8457 18.0176 35.9157 18.0417 35.9871 18.0664C36.1885 18.1364 36.3857 18.1979 36.578 18.2502C36.6331 18.265 36.6889 18.2827 36.7433 18.2968C36.9568 18.3505 37.166 18.3957 37.3674 18.4276C34.4654 20.798 30.5966 23.0526 26.9215 24.4668ZM35.5694 16.3822C33.5679 15.4726 31.3218 13.8272 29.2439 11.7494C27.1667 9.67218 25.5214 7.42609 24.6118 5.42454C23.8223 3.68731 23.6852 2.3162 24.2464 1.75503C24.4754 1.52674 24.8379 1.41366 25.3058 1.41366C25.9857 1.41366 26.8868 1.65255 27.9166 2.12042C29.9181 3.03003 32.1642 4.67466 34.2414 6.75254C38.5314 11.0433 40.4185 15.5687 39.2389 16.7483C38.6777 17.308 37.3066 17.1716 35.5694 16.3822Z" fill="#E70000"/>
<path d="M33.2402 7.75172C31.3101 5.82155 29.6032 4.65752 28.5127 4.02214C27.9289 3.68148 27.2158 3.77265 26.7401 4.24901C26.2638 4.72537 26.1726 5.43849 26.5125 6.02228C27.1479 7.11352 28.3113 8.81893 30.2421 10.7498C32.173 12.6807 33.8791 13.844 34.9697 14.4794C35.205 14.6165 35.4616 14.6836 35.7146 14.6836C36.0899 14.6836 36.4588 14.5366 36.7429 14.2518C37.2193 13.7755 37.3105 13.063 36.9698 12.4786C36.3337 11.388 35.1704 9.68189 33.2402 7.75172ZM35.6807 13.2581C34.6622 12.6644 33.0649 11.5746 31.2408 9.75045C29.4166 7.92629 28.3268 6.32901 27.7338 5.31127L27.801 5.24342C28.8201 5.8371 30.4174 6.92764 32.2409 8.75108C34.0643 10.5745 35.1548 12.1718 35.7485 13.191L35.6807 13.2581Z" fill="#E70000"/>
<path d="M26.2387 13.1041C25.6196 12.4843 25.0563 11.8129 24.6117 11.1612C24.0414 10.3265 23.1014 9.85089 22.078 9.89966C21.0595 9.94348 20.1542 10.4969 19.6573 11.3803C19.1788 12.2284 18.7647 13.0879 18.4261 13.9339C18.2805 14.2964 18.4565 14.7078 18.8191 14.8534C19.1824 14.9975 19.593 14.8216 19.7379 14.4597C20.0538 13.6709 20.4411 12.8681 20.8885 12.073C21.1443 11.6185 21.6115 11.3344 22.1395 11.3118C22.6695 11.2863 23.153 11.5309 23.4456 11.9592C23.9459 12.6914 24.5502 13.4137 25.2407 14.1035C25.9312 14.7933 26.6528 15.3976 27.385 15.898C27.5073 15.9813 27.6458 16.0216 27.783 16.0216C28.0084 16.0216 28.2303 15.9142 28.3674 15.7135C28.588 15.3912 28.5053 14.9516 28.183 14.7311C27.5207 14.2795 26.8677 13.7324 26.2387 13.1041Z" fill="#E70000"/>
<path d="M26.5084 20.8121C23.0064 22.7832 19.7821 23.3833 18.6697 22.2701C18.2986 21.8998 18.1113 21.304 18.1127 20.4997C18.1135 20.1088 17.7975 19.7922 17.4067 19.7915H17.406C17.0159 19.7915 16.6999 20.1067 16.6992 20.4976C16.6978 21.6906 17.0236 22.6235 17.6703 23.2695C18.3552 23.9543 19.3206 24.2385 20.4309 24.2377C22.489 24.2377 25.0404 23.2603 27.2024 22.044C27.5424 21.8524 27.6625 21.4213 27.4717 21.0821C27.2802 20.7414 26.8497 20.6198 26.5084 20.8121Z" fill="#E70000"/>
</g>
<defs>
<clipPath id="clip0_1110_2032">
<rect width="41" height="41" fill="white"/>
</clipPath>
</defs>
</svg>
