<svg width="30" height="40" viewBox="0 0 30 40" fill="none" xmlns="http://www.w3.org/2000/svg">
<path d="M11.4794 21.0657L12.712 16.9873L12.7991 16.6992L12.566 16.5087L9.23066 13.7833H13.3125H13.6421L13.7415 13.4691L15 9.49172L16.2585 13.4691L16.3579 13.7833H16.6875H20.7587L17.389 16.5072L17.1535 16.6975L17.2411 16.9873L18.47 21.0534L15.2776 18.5506L15.0015 18.3341L14.7242 18.5492L11.4794 21.0657ZM25.8 25.2857V39.3725L15.1443 35.7642L15 35.7154L14.8557 35.7642L4.2 39.3725V25.2857V25.1144L4.08604 24.9864C2.93578 23.6949 2.04197 22.2183 1.40463 20.5534C0.769109 18.8933 0.45 17.1227 0.45 15.2381C0.45 11.0987 1.85913 7.60997 4.68007 4.74425C7.50071 1.87884 10.9316 0.45 15 0.45C19.0684 0.45 22.4993 1.87884 25.3199 4.74425C28.1409 7.60997 29.55 11.0987 29.55 15.2381C29.55 17.1227 29.2309 18.8933 28.5954 20.5534C27.958 22.2183 27.0642 23.6949 25.914 24.9864L25.8 25.1144V25.2857ZM7.05 34.3333V34.9155L7.61336 34.7688L15 32.8459L22.3866 34.7688L22.95 34.9155V34.3333V28.4286V27.647L22.2741 28.0394C21.2135 28.6551 20.0683 29.1406 18.8373 29.4952L18.837 29.4953C17.6131 29.8488 16.3346 30.0262 15 30.0262C13.6654 30.0262 12.3869 29.8488 11.163 29.4953L11.1627 29.4952C9.93167 29.1406 8.78651 28.6551 7.72592 28.0394L7.05 27.647V28.4286V34.3333ZM15 27.1167C18.2453 27.1167 21.0172 25.9574 23.2894 23.649C25.5615 21.3409 26.7 18.5284 26.7 15.2381C26.7 11.9478 25.5615 9.13526 23.2894 6.82717C21.0172 4.51881 18.2453 3.35952 15 3.35952C11.7547 3.35952 8.98285 4.51881 6.71056 6.82717C4.43853 9.13526 3.3 11.9478 3.3 15.2381C3.3 18.5284 4.43853 21.3409 6.71056 23.649C8.98285 25.9574 11.7547 27.1167 15 27.1167Z" fill="#E70000" stroke="#F4F4F4" stroke-width="0.9"/>
</svg>
