<svg width="37" height="40" viewBox="0 0 37 40" fill="none" xmlns="http://www.w3.org/2000/svg">
<path d="M16.4784 1.4849C17.0511 1.16688 17.6953 1 18.3503 1C19.0053 1 19.6496 1.16688 20.2222 1.4849L34.7097 9.53159C35.0101 9.69861 35.2603 9.9429 35.4346 10.2391C35.6088 10.5354 35.7006 10.8728 35.7006 11.2165V27.092C35.7005 27.7796 35.5165 28.4546 35.1677 29.0471C34.8189 29.6396 34.318 30.128 33.7169 30.4619L20.2222 37.961C19.6496 38.2791 19.0053 38.4459 18.3503 38.4459C17.6953 38.4459 17.0511 38.2791 16.4784 37.961L2.98372 30.4619C2.38293 30.1282 1.88223 29.6401 1.53345 29.0479C1.18468 28.4558 1.00051 27.7812 1 27.094V11.2165C0.999986 10.8728 1.09185 10.5354 1.26607 10.2391C1.44029 9.9429 1.69054 9.69861 1.9909 9.53159L16.4803 1.4849H16.4784Z" stroke="#E70000" stroke-width="2" stroke-linecap="round" stroke-linejoin="round"/>
<path d="M9.67688 5.26343L27.0272 14.9025V21.6498M6.78516 20.3544L12.5686 23.5777" stroke="#E70000" stroke-width="2" stroke-linecap="round" stroke-linejoin="round"/>
<path d="M18.3503 19.7218V39M1 10.0828L18.3503 19.7218L1 10.0828ZM18.3503 19.7218L35.7006 10.0828L18.3503 19.7218Z" stroke="#E70000" stroke-width="2" stroke-linejoin="round"/>
</svg>
