<svg width="22" height="40" viewBox="0 0 22 40" fill="none" xmlns="http://www.w3.org/2000/svg">
<path fill-rule="evenodd" clip-rule="evenodd" d="M4 1C4 0.734784 4.10536 0.48043 4.29289 0.292893C4.48043 0.105357 4.73478 0 5 0H17C17.2652 0 17.5196 0.105357 17.7071 0.292893C17.8946 0.48043 18 0.734784 18 1V5C18 5.26522 17.8946 5.51957 17.7071 5.70711C17.5196 5.89464 17.2652 6 17 6H15V10C16.8565 10 18.637 10.7375 19.9497 12.0503C21.2625 13.363 22 15.1435 22 17V37C22 37.7957 21.6839 38.5587 21.1213 39.1213C20.5587 39.6839 19.7956 40 19 40H3C2.20435 40 1.44129 39.6839 0.878679 39.1213C0.31607 38.5587 0 37.7957 0 37V17C0 15.1435 0.737498 13.363 2.05025 12.0503C3.36301 10.7375 5.14348 10 7 10V6H5C4.73478 6 4.48043 5.89464 4.29289 5.70711C4.10536 5.51957 4 5.26522 4 5V1ZM9 6H13V11C13 11.2652 13.1054 11.5196 13.2929 11.7071C13.4804 11.8946 13.7348 12 14 12H15C16.1526 12.0001 17.2697 12.3983 18.1625 13.1271C19.0554 13.856 19.6691 14.8708 19.9 16H2.1C2.33088 14.8708 2.94463 13.856 3.83747 13.1271C4.7303 12.3983 5.84745 12.0001 7 12H8C8.26522 12 8.51957 11.8946 8.70711 11.7071C8.89464 11.5196 9 11.2652 9 11V6ZM2 18V37C2 37.2652 2.10536 37.5196 2.29289 37.7071C2.48043 37.8946 2.73478 38 3 38H19C19.2652 38 19.5196 37.8946 19.7071 37.7071C19.8946 37.5196 20 37.2652 20 37V18H2ZM6 2V4H16V2H6ZM7.464 25.83L9.586 27.95L7.465 30.072L6.757 29.364L5.343 30.779L6.051 31.486L7.465 32.901L8.172 33.607L9.586 32.193L8.879 31.486L11 29.365L13.121 31.486L12.414 32.193L13.828 33.608L16.657 30.779L15.243 29.365L14.536 30.072L12.414 27.951L14.536 25.829L15.243 26.536L16.657 25.121L13.828 22.293L12.414 23.707L13.122 24.415L11 26.537L8.879 24.415L9.586 23.708L8.172 22.294L7.464 23.001L6.05 24.415L5.343 25.122L6.757 26.536L7.464 25.829V25.83Z" fill="#E70000"/>
</svg>
