<svg width="39" height="40" viewBox="0 0 39 40" fill="none" xmlns="http://www.w3.org/2000/svg">
<path d="M7.42689 1V5.17486H1V9.26229C1 16.1038 2.76313 19.918 7.00033 22.2896C8.57557 23.2661 10.0295 24.4829 11.3228 25.9071C12.3624 27.1855 13.6302 28.1886 15.0387 28.847L16.6407 29.4153V34.3661H14.195C11.2375 34.3661 10.2422 35.1421 10.2422 37.4481V39H28.7266V37.612C28.7266 35.3497 27.5133 34.3333 24.7075 34.3333H22.3282V29.4153L23.9586 28.8579C25.3692 28.1988 26.6375 27.1916 27.6744 25.9071C29.0237 24.4244 30.534 23.1497 32.1676 22.1148C33.436 21.411 34.5688 20.4205 35.4986 19.202C36.4284 17.9835 37.1363 16.562 37.5802 15.0219C37.882 13.1149 38.0217 11.1786 37.9973 9.24044V5.18579H31.542V1H7.42689ZM19.4844 7.96175L21.4277 12.5956H26.1104L22.4419 16.4973L23.4941 21.4809L19.4844 19L15.4747 21.5137L16.5269 16.5301L12.849 12.6284H17.5412L19.4844 7.96175ZM4.37459 9.34973H7.37002V17.9617C7.0572 18.1803 6.08085 16.8689 5.36991 15.3716C4.96628 14.2253 4.7077 13.018 4.60209 11.7869L4.37459 9.34973ZM31.5988 9.34973H34.8597L34.5848 11.7541C34.5202 13.7556 33.8222 15.6606 32.6226 17.1093C32.3404 17.5527 31.9822 17.9247 31.5704 18.2022L31.5988 9.34973Z" stroke="#E70000" stroke-width="1.6" stroke-linecap="round" stroke-linejoin="round"/>
</svg>
