<svg width="50" height="50" viewBox="0 0 50 50" fill="none" xmlns="http://www.w3.org/2000/svg">
<path d="M14.1901 47.1047L14.1902 47.1046L14.1828 47.1012C14.1743 47.0972 14.1752 47.0974 14.1561 47.0882C13.4907 46.7608 12.8343 46.4013 12.1894 46.0081C0.605891 38.9446 -3.07165 23.773 3.99185 12.1895C11.0554 0.605932 26.2269 -3.07171 37.8104 3.99189C49.394 11.0555 53.0716 26.2268 46.0081 37.8105C41.3783 45.403 33.2643 49.6 24.9588 49.6C21.3124 49.6 17.6303 48.7904 14.1901 47.1047ZM19.3211 4.67535L19.4922 3.99524L18.8197 4.19415C15.7031 5.11594 12.8807 6.69905 10.511 8.82771L9.95198 9.32983L10.6807 9.51319L12.0102 9.84776L12.165 9.8867L12.304 9.80844L18.8242 6.1389L18.9739 6.05461L19.0159 5.88794L19.3211 4.67535ZM13.2221 31.7689L13.2222 31.7688C13.9077 31.0099 13.8946 29.8368 13.1916 29.0937L13.004 28.8953C11.8528 27.6782 11.4101 25.9834 11.819 24.3584C12.034 23.5044 11.651 22.6046 10.8868 22.1672L10.8868 22.1672L4.74853 18.6543L4.3094 18.403L4.1662 18.8882C3.09904 22.5046 2.99537 26.3528 3.90681 30.113L4.29555 30.0187L3.90681 30.113C5.11387 35.0925 7.97327 39.3941 12.0397 42.4104L12.8404 43.0044L12.6722 42.0217L11.6839 36.2454C11.4301 34.7623 11.8625 33.2734 12.8713 32.157L12.5746 31.8889L12.8713 32.157L13.2221 31.7689ZM25.5779 46.7056L25.9332 46.6896C27.2033 46.6324 28.4763 46.4622 29.7403 46.1786L30.3105 46.0506L29.9848 45.5654L29.2619 44.4882C28.4757 43.3169 26.9684 42.8818 25.6788 43.4533L25.6788 43.4533L25.3706 43.59L25.0879 43.7153L25.1379 44.0203L25.5204 46.3547L25.5779 46.7056ZM32.957 44.8036L33.1271 45.1311L33.4672 44.9879C37.6311 43.2341 41.1331 40.2312 43.5305 36.2996C44.3532 34.9505 45.0181 33.5355 45.5243 32.0768L45.6438 31.7324L45.3119 31.5815C45.1654 31.5149 45.0291 31.4255 44.909 31.3106L44.6325 31.5996L44.909 31.3106L43.7222 30.1748L43.4456 30.4638L43.7222 30.1748C42.9649 29.45 41.9671 29.0665 40.9194 29.1015C39.8714 29.1349 38.901 29.5797 38.1913 30.3516L38.4858 30.6224L38.1913 30.3516C37.1838 31.4477 35.8195 32.1911 34.3522 32.4435L30.1324 33.1696C29.8671 33.2152 29.6008 33.2377 29.3366 33.2377C28.2416 33.2377 27.1758 32.8524 26.3247 32.1313L26.0662 32.4365L26.3247 32.1313C25.2685 31.2366 24.6671 29.9304 24.6743 28.5462L24.6939 24.7473C24.6982 23.9051 24.4224 23.0721 23.9162 22.3989L23.9162 22.3988L21.7252 19.4851L21.4055 19.7255L21.7252 19.4851C21.3656 19.0069 21.3364 18.3572 21.6516 17.8487L21.6516 17.8487L25.1131 12.2628C25.3671 11.853 25.8082 11.596 26.29 11.5773L34.2363 11.2688L34.4031 11.2623L34.5159 11.1391L37.5222 7.85317C37.5274 7.84801 37.5343 7.84095 37.5421 7.83227L37.8407 7.49658L37.4727 7.23878C37.0918 6.97193 36.7012 6.71448 36.2992 6.46939C32.8529 4.36777 28.9778 3.28768 25.0387 3.28768C24.323 3.28768 23.6061 3.32544 22.8902 3.39678L22.5706 3.42863L22.5326 3.74753C22.5246 3.8147 22.5146 3.87493 22.5004 3.93138C22.5004 3.93143 22.5004 3.93147 22.5004 3.93152L21.6358 7.36741L21.6357 7.36756C21.5388 7.75343 21.2873 8.08252 20.9404 8.27777L13.0837 12.6994L13.0837 12.6995C12.8649 12.8227 12.6195 12.8859 12.3721 12.8859C12.2538 12.8859 12.135 12.8714 12.0181 12.842L12.0181 12.842L8.04365 11.8419L7.78493 11.7768L7.62541 11.9906C7.2165 12.5388 6.83022 13.1087 6.4694 13.7002L6.46937 13.7002C6.14147 14.238 5.84023 14.7861 5.56289 15.3422L5.39429 15.6802L5.72216 15.8679L12.3283 19.6484C12.3283 19.6484 12.3283 19.6484 12.3283 19.6484C14.2155 20.7286 15.1639 22.9576 14.6332 25.0664L14.6332 25.0665C14.4682 25.7227 14.6477 26.4097 15.1125 26.9013L15.1126 26.9013L15.3001 27.0996C17.0346 28.9336 17.0677 31.8412 15.3753 33.7142L15.0246 34.1023C15.0246 34.1024 15.0246 34.1024 15.0246 34.1024C14.6172 34.553 14.4417 35.1571 14.5442 35.7558C14.5443 35.7558 14.5443 35.7559 14.5443 35.7559L16.0545 44.5821L16.0908 44.794L16.2875 44.8807C18.1467 45.6999 20.0944 46.2486 22.0827 46.5176L22.6186 46.5901L22.5311 46.0565L22.0429 43.0779C21.9361 42.4261 22.2829 41.7845 22.8867 41.5167L24.5027 40.8003C27.0838 39.6562 30.0981 40.5268 31.6714 42.8709L32.0036 42.6479L31.6714 42.8709L32.8746 44.6633L32.8746 44.6634C32.904 44.7072 32.9311 44.7537 32.957 44.8036ZM45.8402 28.1849L46.4067 28.7271L46.513 27.9501C46.8765 25.2947 46.743 22.5684 46.0931 19.8871L45.7043 19.9813L46.0931 19.8871C45.1399 15.9547 43.1557 12.4449 40.3603 9.65635L40.0362 9.33304L39.7593 9.69758C39.7296 9.73665 39.7014 9.77117 39.6727 9.80249L39.6726 9.80262L36.1354 13.6683L36.1354 13.6684C35.8738 13.9544 35.5085 14.1238 35.1212 14.1388L27.3861 14.439L27.1736 14.4472L27.0616 14.628L24.785 18.3017L24.641 18.5342L24.8053 18.7528L26.2356 20.6549C26.2356 20.6549 26.2356 20.6549 26.2356 20.6549C27.1199 21.8312 27.6033 23.2908 27.5958 24.7624L27.5761 28.5612C27.5725 29.2784 27.9694 29.7216 28.2004 29.9171L28.2005 29.9172C28.4311 30.1124 28.9331 30.4311 29.6403 30.3095L29.6403 30.3095L33.8601 29.5835C34.6997 29.439 35.4784 29.0147 36.0551 28.3875L36.0551 28.3875C37.298 27.0353 38.9912 26.2595 40.827 26.2009C42.6631 26.1421 44.402 26.8084 45.7287 28.0782L45.928 27.8701L45.7287 28.0782L45.8402 28.1849Z" fill="#E70000" stroke="#EBEBEB" stroke-width="0.8"/>
</svg>
